# xmcd CD database file
#
# Track frame offsets:
#	150
#	15407
#	33515
#	49547
#	63615
#	81235
#	93730
#	110350
#	123595
#	136600
#	148570
#	160795
#	174470
#	186070
#	198122
#	214142
#
# Disc length: 3092 seconds
#
# Revision: 3
# Processed by: cddbd v1.5.2PL0 Copyright (c) Steve Scherf et al.
# Submitted via: CDex 1.70beta2
#
DISCID=d60c1210
DTITLE=Various Artist - The Winners [CD1]
DYEAR=1993
DGENRE=Country
TTITLE0=Loose Bootee Boogie - Phil Emmanuel
TTITLE1=Way Out West - James Blundell
TTITLE2=Tamworth - Norma Murphy
TTITLE3=Jack O'Hagans Famous Song - Johnny Greenwood
TTITLE4=Hard Times - Colin Buchmann
TTITLE5=Boys From The Bush - Lee Kernaghan
TTITLE6=Sweet Music Man - Felicity Urquhart
TTITLE7=Between This Time And The Next Time - Jan Cooper
TTITLE8=Save A Little Love - Brent Parlane
TTITLE9=Mountain Train Medley: Foggy Mountain Breakdown/Train 45
TTITLE10=I'll Be Gone - Tanya Kernegan
TTITLE11=Kakadu - Brian Young
TTITLE12=Starlight Hotel - The Kanes
TTITLE13=Funnel Of Love - Shanley Del
TTITLE14=I'll Be Gone - John Williamson
TTITLE15=Unwed Fathers - Donna Reynolds
EXTD=YEAR: 1993
EXTT0=Phil Emmanuel
EXTT1=James Blundell and James Reyne
EXTT2=Norma O'Hara Murphy
EXTT3=Johnny Greenwood
EXTT4=Colin Buchanan
EXTT5=Lee Kenaghan
EXTT6=Felicity Urquat
EXTT7=Jan Cooper and Michael Roycroft
EXTT8=Brent Parlane
EXTT9=Donna Reynolds
EXTT10=Tania Kernaghan
EXTT11=Brian Young
EXTT12=The Kanes
EXTT13=Shanley Del
EXTT14=John Williamson
EXTT15=Donna Reynolds
PLAYORDER=
